<?xml version="1.0" encoding="UTF-8" standalone="no"?>
<!-- Created with Inkscape (http://www.inkscape.org/) -->

<svg
   xmlns:dc="http://purl.org/dc/elements/1.1/"
   xmlns:cc="http://creativecommons.org/ns#"
   xmlns:rdf="http://www.w3.org/1999/02/22-rdf-syntax-ns#"
   xmlns:svg="http://www.w3.org/2000/svg"
   xmlns="http://www.w3.org/2000/svg"
   xmlns:sodipodi="http://sodipodi.sourceforge.net/DTD/sodipodi-0.dtd"
   xmlns:inkscape="http://www.inkscape.org/namespaces/inkscape"
   id="svg2"
   version="1.1"
   inkscape:version="0.91+devel r"
   xml:space="preserve"
   width="739.4787"
   height="625.79388"
   viewBox="0 0 739.47867 625.79388"
   sodipodi:docname="histogram MES distribution in region and reference area.svg"><metadata
     id="metadata8"><rdf:RDF><cc:Work
         rdf:about=""><dc:format>image/svg+xml</dc:format><dc:type
           rdf:resource="http://purl.org/dc/dcmitype/StillImage" /><dc:title></dc:title></cc:Work></rdf:RDF></metadata><defs
     id="defs6"><clipPath
       clipPathUnits="userSpaceOnUse"
       id="clipPath176"><path
         d="m 920,1000 4210,0 0,4970 -4210,0 0,-4970 z"
         id="path178"
         inkscape:connector-curvature="0" /></clipPath></defs><sodipodi:namedview
     pagecolor="#ffffff"
     bordercolor="#666666"
     borderopacity="1"
     objecttolerance="10"
     gridtolerance="10"
     guidetolerance="10"
     inkscape:pageopacity="0"
     inkscape:pageshadow="2"
     inkscape:window-width="1871"
     inkscape:window-height="1056"
     id="namedview4"
     inkscape:document-units="px"
     showgrid="false"
     fit-margin-top="4"
     fit-margin-right="4"
     fit-margin-bottom="4"
     fit-margin-left="4"
     inkscape:zoom="0.594958"
     inkscape:cx="949.09288"
     inkscape:cy="299.04573"
     inkscape:window-x="49"
     inkscape:window-y="24"
     inkscape:window-maximized="1"
     inkscape:current-layer="g10" /><g
     id="g10"
     inkscape:groupmode="layer"
     inkscape:label="ink_ext_XXXXXX"
     transform="matrix(0,1.3333333,1.3333333,0,-79.31792,-111.18459)"><g
       id="g4623"><path
         d="m 92,199 211,0"
         style="fill:none;stroke:#c8c8c8;stroke-width:0.75;stroke-linecap:butt;stroke-linejoin:miter;stroke-miterlimit:10;stroke-dasharray:none;stroke-opacity:1"
         id="path96"
         inkscape:connector-curvature="0" /><rect
         transform="matrix(0,1,1,0,0,0)"
         y="112.82309"
         x="118.49577"
         height="48.532837"
         width="152.53178"
         id="rect4607"
         style="opacity:1;fill:#dadaff;fill-opacity:1;stroke:none;stroke-width:5.29350042;stroke-linecap:square;stroke-miterlimit:10;stroke-dasharray:none;stroke-dashoffset:0;stroke-opacity:1" /><path
         d="m 124.73305,127.60487 0,21"
         style="fill:none;stroke:#1e90ff;stroke-width:5.23785305;stroke-linecap:butt;stroke-linejoin:miter;stroke-miterlimit:10;stroke-dasharray:none;stroke-opacity:1"
         id="path28"
         inkscape:connector-curvature="0" /><path
         d="m 147.50243,127.60487 0,21"
         style="fill:none;stroke:#0000ff;stroke-width:5.29349995;stroke-linecap:butt;stroke-linejoin:miter;stroke-miterlimit:10;stroke-dasharray:none;stroke-opacity:1"
         id="path36"
         inkscape:connector-curvature="0" /><path
         d="m 513,100 -212,0"
         style="fill:none;stroke:#c8c8c8;stroke-width:0.75;stroke-linecap:butt;stroke-linejoin:miter;stroke-miterlimit:10;stroke-dasharray:none;stroke-opacity:1"
         id="path44"
         inkscape:connector-curvature="0" /><g
         id="g46"><text
           transform="matrix(0,1,1,0,521,100)"
           style="font-variant:normal;font-weight:normal;font-size:9.32518005px;font-family:Helvetica;-inkscape-font-specification:Helvetica;writing-mode:lr-tb;fill:#4c4c4c;fill-opacity:1;fill-rule:nonzero;stroke:none"
           id="text48"><tspan
             x="0"
             y="0"
             id="tspan50">0</tspan></text>
</g><path
         d="m 513,199 -212,0"
         style="fill:none;stroke:#c8c8c8;stroke-width:0.75;stroke-linecap:butt;stroke-linejoin:miter;stroke-miterlimit:10;stroke-dasharray:none;stroke-opacity:1"
         id="path52"
         inkscape:connector-curvature="0" /><g
         id="g54"><text
           transform="matrix(0,1,1,0,521,199)"
           style="font-variant:normal;font-weight:normal;font-size:9.32518005px;font-family:Helvetica;-inkscape-font-specification:Helvetica;writing-mode:lr-tb;fill:#4c4c4c;fill-opacity:1;fill-rule:nonzero;stroke:none"
           id="text56"><tspan
             x="0 5.1848001"
             y="0"
             sodipodi:role="line"
             id="tspan58">20</tspan></text>
</g><path
         d="m 513,298 -212,0"
         style="fill:none;stroke:#c8c8c8;stroke-width:0.75;stroke-linecap:butt;stroke-linejoin:miter;stroke-miterlimit:10;stroke-dasharray:none;stroke-opacity:1"
         id="path60"
         inkscape:connector-curvature="0" /><g
         id="g62"><text
           transform="matrix(0,1,1,0,521,298)"
           style="font-variant:normal;font-weight:normal;font-size:9.32518005px;font-family:Helvetica;-inkscape-font-specification:Helvetica;writing-mode:lr-tb;fill:#4c4c4c;fill-opacity:1;fill-rule:nonzero;stroke:none"
           id="text64"><tspan
             x="0 5.1848001"
             y="0"
             sodipodi:role="line"
             id="tspan66">40</tspan></text>
</g><path
         d="m 513,397 -212,0"
         style="fill:none;stroke:#c8c8c8;stroke-width:0.75;stroke-linecap:butt;stroke-linejoin:miter;stroke-miterlimit:10;stroke-dasharray:none;stroke-opacity:1"
         id="path68"
         inkscape:connector-curvature="0" /><g
         id="g70"><text
           transform="matrix(0,1,1,0,521,397)"
           style="font-variant:normal;font-weight:normal;font-size:9.32518005px;font-family:Helvetica;-inkscape-font-specification:Helvetica;writing-mode:lr-tb;fill:#4c4c4c;fill-opacity:1;fill-rule:nonzero;stroke:none"
           id="text72"><tspan
             x="0 5.1848001"
             y="0"
             sodipodi:role="line"
             id="tspan74">60</tspan></text>
</g><path
         d="m 513,496 -212,0"
         style="fill:none;stroke:#c8c8c8;stroke-width:0.75;stroke-linecap:butt;stroke-linejoin:miter;stroke-miterlimit:10;stroke-dasharray:none;stroke-opacity:1"
         id="path76"
         inkscape:connector-curvature="0" /><g
         id="g78"><text
           transform="matrix(0,1,1,0,521,496)"
           style="font-variant:normal;font-weight:normal;font-size:9.32518005px;font-family:Helvetica;-inkscape-font-specification:Helvetica;writing-mode:lr-tb;fill:#4c4c4c;fill-opacity:1;fill-rule:nonzero;stroke:none"
           id="text80"><tspan
             x="0 5.1848001"
             y="0"
             sodipodi:role="line"
             id="tspan82">80</tspan></text>
</g><path
         d="m 513,596 -212,0"
         style="fill:none;stroke:#c8c8c8;stroke-width:0.75;stroke-linecap:butt;stroke-linejoin:miter;stroke-miterlimit:10;stroke-dasharray:none;stroke-opacity:1"
         id="path84"
         inkscape:connector-curvature="0" /><g
         id="g86"><text
           transform="matrix(0,1,1,0,521,596)"
           style="font-variant:normal;font-weight:normal;font-size:9.32518005px;font-family:Helvetica;-inkscape-font-specification:Helvetica;writing-mode:lr-tb;fill:#4c4c4c;fill-opacity:1;fill-rule:nonzero;stroke:none"
           id="text88"><tspan
             x="0 5.1848001 10.3696"
             y="0"
             sodipodi:role="line"
             id="tspan90">100</tspan></text>
</g><path
         d="m 513,100 0,496"
         style="fill:none;stroke:#c8c8c8;stroke-width:0.75;stroke-linecap:butt;stroke-linejoin:miter;stroke-miterlimit:10;stroke-dasharray:none;stroke-opacity:1"
         id="path92"
         inkscape:connector-curvature="0" /><path
         d="m 92,100 211,0"
         style="fill:none;stroke:#c8c8c8;stroke-width:0.75;stroke-linecap:butt;stroke-linejoin:miter;stroke-miterlimit:10;stroke-dasharray:none;stroke-opacity:1"
         id="path94"
         inkscape:connector-curvature="0" /><path
         d="m 92,298 211,0"
         style="fill:none;stroke:#c8c8c8;stroke-width:0.75;stroke-linecap:butt;stroke-linejoin:miter;stroke-miterlimit:10;stroke-dasharray:none;stroke-opacity:1"
         id="path98"
         inkscape:connector-curvature="0" /><path
         d="m 92,397 211,0"
         style="fill:none;stroke:#c8c8c8;stroke-width:0.75;stroke-linecap:butt;stroke-linejoin:miter;stroke-miterlimit:10;stroke-dasharray:none;stroke-opacity:1"
         id="path100"
         inkscape:connector-curvature="0" /><path
         d="m 92,496 211,0"
         style="fill:none;stroke:#c8c8c8;stroke-width:0.75;stroke-linecap:butt;stroke-linejoin:miter;stroke-miterlimit:10;stroke-dasharray:none;stroke-opacity:1"
         id="path102"
         inkscape:connector-curvature="0" /><path
         d="m 92,596 211,0"
         style="fill:none;stroke:#c8c8c8;stroke-width:0.75;stroke-linecap:butt;stroke-linejoin:miter;stroke-miterlimit:10;stroke-dasharray:none;stroke-opacity:1"
         id="path104"
         inkscape:connector-curvature="0" /><path
         d="m 92,100 0,496"
         style="fill:none;stroke:#c8c8c8;stroke-width:0.75;stroke-linecap:butt;stroke-linejoin:miter;stroke-miterlimit:10;stroke-dasharray:none;stroke-opacity:1"
         id="path106"
         inkscape:connector-curvature="0" /><path
         d="m 513,100 0,249"
         style="fill:none;stroke:#c8c8c8;stroke-width:0.75;stroke-linecap:butt;stroke-linejoin:miter;stroke-miterlimit:10;stroke-dasharray:none;stroke-opacity:1"
         id="path108"
         inkscape:connector-curvature="0" /><g
         id="g110"><text
           transform="matrix(0,1,1,0,513,93)"
           style="font-variant:normal;font-weight:normal;font-size:9.32518005px;font-family:Helvetica;-inkscape-font-specification:Helvetica;writing-mode:lr-tb;fill:#4c4c4c;fill-opacity:1;fill-rule:nonzero;stroke:none"
           id="text112"><tspan
             x="0"
             y="0"
             id="tspan114">0</tspan></text>
</g><path
         d="m 429,100 0,249"
         style="fill:none;stroke:#c8c8c8;stroke-width:0.75;stroke-linecap:butt;stroke-linejoin:miter;stroke-miterlimit:10;stroke-dasharray:none;stroke-opacity:1"
         id="path116"
         inkscape:connector-curvature="0" /><g
         id="g118"><text
           transform="matrix(0,1,1,0,429,93)"
           style="font-variant:normal;font-weight:normal;font-size:9.32518005px;font-family:Helvetica;-inkscape-font-specification:Helvetica;writing-mode:lr-tb;fill:#4c4c4c;fill-opacity:1;fill-rule:nonzero;stroke:none"
           id="text120"><tspan
             x="0"
             y="0"
             id="tspan122">2</tspan></text>
</g><path
         d="m 344,100 0,249"
         style="fill:none;stroke:#c8c8c8;stroke-width:0.75;stroke-linecap:butt;stroke-linejoin:miter;stroke-miterlimit:10;stroke-dasharray:none;stroke-opacity:1"
         id="path124"
         inkscape:connector-curvature="0" /><g
         id="g126"><text
           transform="matrix(0,1,1,0,345,93)"
           style="font-variant:normal;font-weight:normal;font-size:9.32518005px;font-family:Helvetica;-inkscape-font-specification:Helvetica;writing-mode:lr-tb;fill:#4c4c4c;fill-opacity:1;fill-rule:nonzero;stroke:none"
           id="text128"><tspan
             x="0"
             y="0"
             id="tspan130">4</tspan></text>
</g><path
         d="m 260,100 0,249"
         style="fill:none;stroke:#c8c8c8;stroke-width:0.75;stroke-linecap:butt;stroke-linejoin:miter;stroke-miterlimit:10;stroke-dasharray:none;stroke-opacity:1"
         id="path132"
         inkscape:connector-curvature="0" /><g
         id="g134"><text
           transform="matrix(0,1,1,0,261,93)"
           style="font-variant:normal;font-weight:normal;font-size:9.32518005px;font-family:Helvetica;-inkscape-font-specification:Helvetica;writing-mode:lr-tb;fill:#4c4c4c;fill-opacity:1;fill-rule:nonzero;stroke:none"
           id="text136"><tspan
             x="0"
             y="0"
             id="tspan138">6</tspan></text>
</g><path
         d="m 176,100 0,249"
         style="fill:none;stroke:#c8c8c8;stroke-width:0.75;stroke-linecap:butt;stroke-linejoin:miter;stroke-miterlimit:10;stroke-dasharray:none;stroke-opacity:1"
         id="path140"
         inkscape:connector-curvature="0" /><g
         id="g142"><text
           transform="matrix(0,1,1,0,177,93)"
           style="font-variant:normal;font-weight:normal;font-size:9.32518005px;font-family:Helvetica;-inkscape-font-specification:Helvetica;writing-mode:lr-tb;fill:#4c4c4c;fill-opacity:1;fill-rule:nonzero;stroke:none"
           id="text144"><tspan
             x="0"
             y="0"
             id="tspan146">8</tspan></text>
</g><path
         d="m 92,100 0,249"
         style="fill:none;stroke:#c8c8c8;stroke-width:0.75;stroke-linecap:butt;stroke-linejoin:miter;stroke-miterlimit:10;stroke-dasharray:none;stroke-opacity:1"
         id="path148"
         inkscape:connector-curvature="0" /><g
         id="g150"><text
           transform="matrix(0,1,1,0,93,88)"
           style="font-variant:normal;font-weight:normal;font-size:9.32518005px;font-family:Helvetica;-inkscape-font-specification:Helvetica;writing-mode:lr-tb;fill:#4c4c4c;fill-opacity:1;fill-rule:nonzero;stroke:none"
           id="text152"><tspan
             x="0 5.1848001"
             y="0"
             sodipodi:role="line"
             id="tspan154">10</tspan></text>
</g><path
         d="M 513,100 92,100"
         style="fill:none;stroke:#c8c8c8;stroke-width:0.75;stroke-linecap:butt;stroke-linejoin:miter;stroke-miterlimit:10;stroke-dasharray:none;stroke-opacity:1"
         id="path156"
         inkscape:connector-curvature="0" /><path
         d="m 513,596 0,-249"
         style="fill:none;stroke:#c8c8c8;stroke-width:0.75;stroke-linecap:butt;stroke-linejoin:miter;stroke-miterlimit:10;stroke-dasharray:none;stroke-opacity:1"
         id="path158"
         inkscape:connector-curvature="0" /><path
         d="m 429,596 0,-249"
         style="fill:none;stroke:#c8c8c8;stroke-width:0.75;stroke-linecap:butt;stroke-linejoin:miter;stroke-miterlimit:10;stroke-dasharray:none;stroke-opacity:1"
         id="path160"
         inkscape:connector-curvature="0" /><path
         d="m 344,596 0,-249"
         style="fill:none;stroke:#c8c8c8;stroke-width:0.75;stroke-linecap:butt;stroke-linejoin:miter;stroke-miterlimit:10;stroke-dasharray:none;stroke-opacity:1"
         id="path162"
         inkscape:connector-curvature="0" /><path
         d="m 260,596 0,-249"
         style="fill:none;stroke:#c8c8c8;stroke-width:0.75;stroke-linecap:butt;stroke-linejoin:miter;stroke-miterlimit:10;stroke-dasharray:none;stroke-opacity:1"
         id="path164"
         inkscape:connector-curvature="0" /><path
         d="m 176,596 0,-249"
         style="fill:none;stroke:#c8c8c8;stroke-width:0.75;stroke-linecap:butt;stroke-linejoin:miter;stroke-miterlimit:10;stroke-dasharray:none;stroke-opacity:1"
         id="path166"
         inkscape:connector-curvature="0" /><path
         d="M 92,596 92,347"
         style="fill:none;stroke:#c8c8c8;stroke-width:0.75;stroke-linecap:butt;stroke-linejoin:miter;stroke-miterlimit:10;stroke-dasharray:none;stroke-opacity:1"
         id="path168"
         inkscape:connector-curvature="0" /><path
         d="M 513,596 92,596"
         style="fill:none;stroke:#c8c8c8;stroke-width:0.75;stroke-linecap:butt;stroke-linejoin:miter;stroke-miterlimit:10;stroke-dasharray:none;stroke-opacity:1"
         id="path170"
         inkscape:connector-curvature="0" /><path
         sodipodi:nodetypes="ccccccccccccccccccccccccccccccccccccccc"
         inkscape:connector-curvature="0"
         id="path180"
         d="m 512,101 c -4.57621,15.73569 -4.36105,33.5642 -14.02549,47.09948 0.24137,14.30995 -3.75905,28.03553 -2.54238,42.87184 -3.88839,6.1804 -4.6574,13.76869 2.54456,19.40509 -3.28534,11.66368 1.58055,30.5422 -17.49204,27.04494 -0.085,-2.07854 30.99067,10.08736 11.92724,10.48407 -10.2052,0.22247 -8.91558,1.77005 -8.91558,1.77005 l 8.43115,1.32453 -11.67903,2.6303 15.50318,3.26059 c -9.43763,5.75299 -3.61794,15.8582 -9.9554,21.97812 9.32427,4.09926 8.19636,12.36083 -0.38266,13.91235 14.53382,5.1978 -5.19923,10.68017 3.69227,20.20359 1.82363,10.65083 11.39745,18.54238 -4.17343,23.71448 2.23397,5.5184 4.09646,8.47093 -0.19223,14.30357 14.12327,9.57757 -19.47853,10.22482 -2.21001,16.62699 3.52943,9.86985 7.34609,5.79238 10.93441,8.05894 -11.32974,-2.86114 -18.25677,5.728 -2.98627,16.78957 -6.75208,6.24544 -8.434,20.46478 5.3018,22.8063 1.03558,3.61677 -21.13751,3.2067 -5.10753,5.73601 16.30505,1.13576 -3.17997,5.15966 -0.50877,8.04486 19.68903,4.96245 -24.03931,1.7677 -4.8252,6.26814 9.17358,3.03892 12.40215,2.04479 3.66988,8.18657 16.57323,2.84709 1.65915,13.78699 -8.12092,11.5214 -3.56036,0.42247 -16.75165,0.58377 -13.97511,1.17808 l 26.75298,5.00717 L 472,463 494.31222,471.46277 480,473 c 8.51059,6.72 26.91808,6.74851 12.92199,17.56936 -4.97281,5.74032 -13.8551,2.59932 -20.66658,3.96787 -20.94109,0.51898 11.0367,2.57804 18.03472,2.75274 9.3855,-1.08944 19.73709,6.70491 6.0228,10.68761 -3.48404,8.36819 -10.60037,8.53159 -19.09179,9.14713 -11.20915,0.88484 -3.3963,1.16512 3.34933,1.47932 l 11.50461,1.84166 L 488,525 c 3.21762,10.2135 -5.16539,17.63542 6.46183,22.81952 C 507.52739,553.66709 493.38318,567.86516 494,578"
         style="fill:none;stroke:#0d151f;stroke-width:2.34975004;stroke-linecap:butt;stroke-linejoin:miter;stroke-miterlimit:10;stroke-dasharray:none;stroke-opacity:1" /><path
         sodipodi:nodetypes="ccccccccccccccccccccccccccccccccccccccccccccccccccccccccccccccccccccccccccccccccccccccccccccccccccccccccccccccccccccccccccccccccccccccc"
         d="m 512,272 0,4 -3,1 -1,3 -7,3 -14,2 -14,2 14,4 21,1 3.94429,1 -36.94429,1 26,1 11,2 -38,1 16,1 -39,4 10,3 18,1 20,3 -9,1 16,4 -41,1 17,1 15,1 -1,4 -22,1 27,2 -22,2 28,1 -11,1 12,1 3,1 0,2 -26,1 19,1 -17,1 24,2 1,1 -26,1 25,1 -38,1 33,2 6,1 -3,1 -17,2 -12,2 19,2 4,1 0,1 9,3 -46,2 47,3 -50,1 49,1 -16,1 15,1 -5,2 -2,2 -7,1 12,1 -20,2 22,1 -56,2 51,1 -8,2 4,2 3,1 2,2 -8,2 -1,1 -3,3 3,2 -32,1 46,1 -2,2 -22,1 16,3 2,2 -8,1 14,1 -9,1 7,1 -2,2 -31,1 33,1 -48,2 36,2 3,1 2,1 9,1 -2,1 -4,2 -3,3 -1,1 5,2 -2,1 -1,1 -124,1 112,3 3,3 6,2 -47,2 49,4 -58,1 65,2 -3,3 -10,1 13,3 -125,2 121,1 5,1 -42,2 38,3 -51,2 49,3 -235,4 227,4 -40,3 9,1 -178,8 224,4 -17,2 -246,1 148,8 115,3 -388,5 293,7 88,1 -252,6 212,2 -5,7 -164,7 156,16 56,15 4,7"
         style="opacity:0.38999999;fill:none;stroke:#0000ff;stroke-width:1.37475002;stroke-linecap:butt;stroke-linejoin:miter;stroke-miterlimit:10;stroke-dasharray:none;stroke-opacity:1"
         id="path182"
         inkscape:connector-curvature="0" /><path
         transform="matrix(0,0.75000002,0.75000002,0,0,0)"
         inkscape:connector-curvature="0"
         id="path4493"
         d="m 714.91543,570.37949 c -0.0102,-1.96838 4.4636,-107.41479 4.63948,-109.35082 l 0.16952,-1.86598 3.61025,0.0832 3.61026,0.0832 5.71139,55.56231 c 3.14126,30.55927 5.71731,55.7963 5.72456,56.08228 0.0123,0.48666 -0.73877,0.51997 -11.72325,0.51997 l -11.73642,0 -0.006,-1.11422 z"
         style="opacity:0.38999999;fill:#0000ff;fill-opacity:0.38823529;stroke:none;stroke-width:0.54462951;stroke-linecap:square;stroke-miterlimit:10;stroke-dasharray:none;stroke-dashoffset:0;stroke-opacity:1" /><path
         transform="matrix(0,0.75000002,0.75000002,0,0,0)"
         inkscape:connector-curvature="0"
         id="path4495"
         d="m 719.68459,457.175 c 0.0298,-2.59705 2.02415,-46.77555 2.11571,-46.86711 0.0609,-0.0609 1.1629,10.20863 2.44897,22.82111 1.28607,12.61248 2.40499,23.36632 2.4865,23.89743 l 0.14819,0.96566 -3.60438,0 -3.60437,0 0.009,-0.81709 z"
         style="opacity:0.38999999;fill:#0000ff;fill-opacity:0.38823529;stroke:none;stroke-width:0.54462951;stroke-linecap:square;stroke-miterlimit:10;stroke-dasharray:none;stroke-dashoffset:0;stroke-opacity:1" /><path
         transform="matrix(0,0.75000002,0.75000002,0,0,0)"
         inkscape:connector-curvature="0"
         id="path4497"
         d="m 698.29251,454.05519 c 0.0193,-7.40724 1.11024,-48.3881 1.29295,-48.57081 0.10032,-0.10032 0.18254,4.55303 0.1827,10.34077 1.7e-4,5.78774 0.0889,17.64301 0.19717,26.34505 l 0.19686,15.82189 -0.93998,0 -0.93997,0 0.0103,-3.9369 z"
         style="opacity:0.38999999;fill:#0000ff;fill-opacity:0.38823529;stroke:none;stroke-width:0.54462951;stroke-linecap:square;stroke-miterlimit:10;stroke-dasharray:none;stroke-dashoffset:0;stroke-opacity:1" /><path
         transform="matrix(0,0.75000002,0.75000002,0,0,0)"
         inkscape:connector-curvature="0"
         id="path4499"
         d="m 695.5411,568.29999 c 0.53496,-20.95441 2.44401,-103.83796 2.44401,-106.10922 l 0,-3.01018 1.00571,0 1.00572,0 0.1819,9.28514 c 0.10005,5.10683 0.31451,26.13212 0.47658,46.72286 0.16207,20.59074 0.37544,41.68287 0.47416,46.87141 l 0.17949,9.43371 -2.92456,3e-4 -2.92456,3e-4 0.0815,-3.19446 0,1.4e-4 z"
         style="opacity:0.38999999;fill:#0000ff;fill-opacity:0.38823529;stroke:none;stroke-width:0.54462951;stroke-linecap:square;stroke-miterlimit:10;stroke-dasharray:none;stroke-dashoffset:0;stroke-opacity:1" /><path
         transform="matrix(0,0.75000002,0.75000002,0,0,0)"
         inkscape:connector-curvature="0"
         id="path4501"
         d="m 678.69688,451.08394 c 0.0137,-3.79948 0.31452,-28.70224 0.66853,-55.33947 l 0.64366,-48.43132 2.27087,-0.0862 2.27088,-0.0862 0.18426,4.54308 c 0.10135,2.49869 0.64821,24.66584 1.21525,49.26033 0.56704,24.5945 1.11841,47.49167 1.22526,50.8826 l 0.19428,6.16534 -4.34893,0 -4.34893,0 0.0249,-6.90815 z"
         style="opacity:0.38999999;fill:#0000ff;fill-opacity:0.38823529;stroke:none;stroke-width:0.54462951;stroke-linecap:square;stroke-miterlimit:10;stroke-dasharray:none;stroke-dashoffset:0;stroke-opacity:1" /><path
         transform="matrix(0,0.75000002,0.75000002,0,0,0)"
         inkscape:connector-curvature="0"
         id="path4503"
         d="m 680.1621,339.51363 c 0.002,-3.55435 0.26786,-25.98355 0.58978,-49.84266 0.32192,-23.85911 0.58732,-44.68384 0.58978,-46.27717 0.004,-2.37501 0.0848,-2.89697 0.45016,-2.89697 0.36707,0 0.44597,0.5372 0.44731,3.04553 8.9e-4,1.67504 0.53458,25.10704 1.18597,52.0711 0.6514,26.96406 1.18549,49.32641 1.18688,49.6941 0.002,0.63409 -0.11228,0.66853 -2.22591,0.66853 l -2.22844,0 0.004,-6.46246 z"
         style="opacity:0.38999999;fill:#0000ff;fill-opacity:0.38823529;stroke:none;stroke-width:0.54462951;stroke-linecap:square;stroke-miterlimit:10;stroke-dasharray:none;stroke-dashoffset:0;stroke-opacity:1" /><path
         transform="matrix(0,0.75000002,0.75000002,0,0,0)"
         inkscape:connector-curvature="0"
         id="path4505"
         d="m 662.06863,424.49128 0.0356,-33.5008 1.71571,31.19809 c 0.94365,17.15895 1.7746,32.23431 1.84658,33.5008 l 0.13086,2.30272 -1.88218,0 -1.88217,0 0.0356,-33.50081 z"
         style="opacity:0.38999999;fill:#0000ff;fill-opacity:0.38823529;stroke:none;stroke-width:0.54462951;stroke-linecap:square;stroke-miterlimit:10;stroke-dasharray:none;stroke-dashoffset:0;stroke-opacity:1" /><path
         transform="matrix(0,0.75000002,0.75000002,0,0,0)"
         inkscape:connector-curvature="0"
         id="path4507"
         d="m 662.03303,515.33715 0,-56.15656 1.93131,0 c 1.34767,0 1.93091,0.11224 1.92998,0.3714 -7.4e-4,0.20428 0.86156,16.48299 1.9162,36.17493 1.69534,31.65491 2.86266,61.94585 2.84254,73.7612 l -0.003,2.00559 -4.30831,0 -4.3083,0 0,-56.15656 z"
         style="opacity:0.38999999;fill:#0000ff;fill-opacity:0.38823529;stroke:none;stroke-width:0.54462951;stroke-linecap:square;stroke-miterlimit:10;stroke-dasharray:none;stroke-dashoffset:0;stroke-opacity:1" /><path
         transform="matrix(0,0.75000002,0.75000002,0,0,0)"
         inkscape:connector-curvature="0"
         id="path4511"
         d="m 660.81638,495.64135 c 0,-20.08006 0.009,-28.29463 0.0189,-18.2546 0.0104,10.04003 0.0104,26.46916 0,36.50919 -0.0104,10.04003 -0.0189,1.82546 -0.0189,-18.25459 z"
         style="opacity:0.38999999;fill:#0000ff;fill-opacity:0.38823529;stroke:none;stroke-width:0.13615738;stroke-linecap:square;stroke-miterlimit:10;stroke-dasharray:none;stroke-dashoffset:0;stroke-opacity:1" /><path
         transform="matrix(0,0.75000002,0.75000002,0,0,0)"
         inkscape:connector-curvature="0"
         id="path4513"
         d="m 660.15125,525.40952 c 0.0488,-7.7476 0.2572,-59.16787 0.25701,-63.39897 l -1.2e-4,-2.84126 0.1857,0 0.1857,0 0,36.47206 0,36.47205 -0.33523,0 -0.33524,0 0.0422,-6.70388 z"
         style="opacity:0.38999999;fill:#0000ff;fill-opacity:0.38823529;stroke:none;stroke-width:0.13615738;stroke-linecap:square;stroke-miterlimit:10;stroke-dasharray:none;stroke-dashoffset:0;stroke-opacity:1" /><path
         transform="matrix(0,0.75000002,0.75000002,0,0,0)"
         inkscape:connector-curvature="0"
         id="path4515"
         d="m 644.95765,532.05161 c 0,-0.034 0.73539,-16.4186 1.63419,-36.41026 0.8988,-19.99167 1.63419,-36.37629 1.63419,-36.41027 0,-0.034 0.63158,-0.0618 1.40352,-0.0618 l 1.40352,0 0.0447,1.13279 c 0.0246,0.62303 0.31117,16.44214 0.63681,35.15356 0.32565,18.71143 0.61203,34.6141 0.63639,35.33927 l 0.0443,1.31849 -3.71883,0 c -2.04535,0 -3.71883,-0.0278 -3.71883,-0.0618 z"
         style="opacity:0.38999999;fill:#0000ff;fill-opacity:0.38823529;stroke:none;stroke-width:0.13615738;stroke-linecap:square;stroke-miterlimit:10;stroke-dasharray:none;stroke-dashoffset:0;stroke-opacity:1" /><path
         transform="matrix(0,0.75000002,0.75000002,0,0,0)"
         inkscape:connector-curvature="0"
         id="path4517"
         d="m 627.37521,530.12638 c 0.0253,-1.09286 0.2996,-17.26295 0.60962,-35.93352 0.31001,-18.67057 0.58177,-34.18997 0.60389,-34.48755 l 0.0402,-0.54107 0.7548,0.0211 0.75481,0.0211 0.60289,34.3179 c 0.33158,18.87485 0.62256,35.27891 0.64662,36.45349 l 0.0437,2.13558 -2.05127,0 -2.05128,0 0.046,-1.98702 z"
         style="opacity:0.38999999;fill:#0000ff;fill-opacity:0.38823529;stroke:none;stroke-width:0.13615738;stroke-linecap:square;stroke-miterlimit:10;stroke-dasharray:none;stroke-dashoffset:0;stroke-opacity:1" /><path
         transform="matrix(0,0.75000002,0.75000002,0,0,0)"
         inkscape:connector-curvature="0"
         id="path4519"
         d="m 628.63798,456.03091 c 0.0253,-1.15414 0.14936,-8.54976 0.27568,-16.4347 0.12633,-7.88495 0.24735,-14.54518 0.26895,-14.80053 0.0325,-0.38443 0.0624,-0.46425 0.174,-0.46425 0.12276,0 0.13875,0.10734 0.17979,1.20707 0.0399,1.06958 0.57036,31.21911 0.56654,32.20088 l -0.002,0.38998 -0.75472,0 -0.75472,0 0.046,-2.09845 z"
         style="opacity:0.38999999;fill:#0000ff;fill-opacity:0.38823529;stroke:none;stroke-width:0.13615738;stroke-linecap:square;stroke-miterlimit:10;stroke-dasharray:none;stroke-dashoffset:0;stroke-opacity:1" /><path
         transform="matrix(0,0.75000002,0.75000002,0,0,0)"
         inkscape:connector-curvature="0"
         id="path4521"
         d="m 648.30031,457.8695 c 0,-0.14292 0.33426,-7.68896 0.74281,-16.76898 0.40854,-9.08001 0.74281,-16.56761 0.74281,-16.6391 0,-0.10454 0.0654,-0.12999 0.33427,-0.12999 l 0.33426,0 6e-4,0.42711 c 3.3e-4,0.23492 0.13377,7.79767 0.29653,16.80612 0.16275,9.00845 0.29619,16.42078 0.29652,16.47185 4.6e-4,0.0709 -0.32344,0.0928 -1.3736,0.0928 l -1.3742,0 0,-0.25986 z"
         style="opacity:0.38999999;fill:#0000ff;fill-opacity:0.38823529;stroke:none;stroke-width:0.13615738;stroke-linecap:square;stroke-miterlimit:10;stroke-dasharray:none;stroke-dashoffset:0;stroke-opacity:1" /><path
         transform="matrix(0,0.75000002,0.75000002,0,0,0)"
         inkscape:connector-curvature="0"
         id="path4523"
         d="m 677.56741,531.31488 c 1.8e-4,-0.43919 0.20056,-16.25829 0.44528,-35.15357 0.24473,-18.89527 0.44514,-34.94836 0.44537,-35.67353 l 4e-4,-1.31849 4.47642,0 4.47641,0 0.83898,35.33927 c 0.46144,19.43659 0.85895,35.84902 0.88336,36.47205 l 0.0444,1.13279 -5.80547,0 -5.80546,0 3.2e-4,-0.79852 z"
         style="opacity:0.38999999;fill:#0000ff;fill-opacity:0.38823529;stroke:none;stroke-width:0.13615738;stroke-linecap:square;stroke-miterlimit:10;stroke-dasharray:none;stroke-dashoffset:0;stroke-opacity:1" /><path
         transform="matrix(0,0.75000002,0.75000002,0,0,0)"
         inkscape:connector-curvature="0"
         id="path4525"
         d="m 659.97556,568.04433 c 0.0369,-6.2124 0.12388,-29.16409 0.12353,-32.59159 l -3.5e-4,-3.34845 0.34109,0 0.3411,0 0.0138,-4.16259 c 0.008,-2.28942 0.0195,6.57413 0.0266,19.69677 l 0.0128,23.85936 -0.43952,0 -0.43951,0 0.0205,-3.4535 z"
         style="opacity:0.38999999;fill:#0000ff;fill-opacity:0.38823529;stroke:none;stroke-width:0.0962778;stroke-linecap:square;stroke-miterlimit:10;stroke-dasharray:none;stroke-dashoffset:0;stroke-opacity:1" /><path
         transform="matrix(0,0.75000002,0.75000002,0,0,0)"
         inkscape:connector-curvature="0"
         id="path4527"
         d="m 643.18891,571.24833 c 0.002,-0.13722 0.39781,-9.00231 0.8802,-19.70021 l 0.87707,-19.45071 3.69987,0.005 c 2.03494,0.003 3.70649,0.0117 3.71458,0.0198 0.0162,0.0162 0.6998,37.93792 0.6998,38.82266 l 0,0.55284 -4.93733,0 -4.93732,0 0.003,-0.2495 z"
         style="opacity:0.38999999;fill:#0000ff;fill-opacity:0.38823529;stroke:none;stroke-width:0.0962778;stroke-linecap:square;stroke-miterlimit:10;stroke-dasharray:none;stroke-dashoffset:0;stroke-opacity:1" /><path
         transform="matrix(0,0.75000002,0.75000002,0,0,0)"
         inkscape:connector-curvature="0"
         id="path4529"
         d="m 641.91163,599.69047 c 0.01,-0.18056 0.27581,-6.13095 0.59128,-13.2231 0.31548,-7.09215 0.58864,-13.13709 0.60702,-13.4332 l 0.0334,-0.53837 4.98479,0 4.98479,0 2.1e-4,0.51211 c 1.1e-4,0.28167 0.10639,6.40933 0.23613,13.61703 0.12975,7.20771 0.23601,13.16992 0.23614,13.24936 l 2.4e-4,0.14445 -5.84586,0 -5.84586,0 0.0177,-0.32828 z"
         style="opacity:0.38999999;fill:#0000ff;fill-opacity:0.38823529;stroke:none;stroke-width:0.0962778;stroke-linecap:square;stroke-miterlimit:10;stroke-dasharray:none;stroke-dashoffset:0;stroke-opacity:1" /><path
         transform="matrix(0,0.75000002,0.75000002,0,0,0)"
         inkscape:connector-curvature="0"
         id="path4531"
         d="m 659.85512,596.06626 c 0.0183,-2.17386 0.0484,-8.36653 0.0669,-13.76147 l 0.0336,-9.80899 0.43921,0 0.43922,0 0,13.76147 0,13.76148 -0.50614,0 -0.50613,0 0.0333,-3.95249 z"
         style="opacity:0.38999999;fill:#0000ff;fill-opacity:0.38823529;stroke:none;stroke-width:0.0962778;stroke-linecap:square;stroke-miterlimit:10;stroke-dasharray:none;stroke-dashoffset:0;stroke-opacity:1" /><path
         transform="matrix(0,0.75000002,0.75000002,0,0,0)"
         inkscape:connector-curvature="0"
         id="path4533"
         d="m 661.83206,586.25727 0,-13.76147 4.51712,0 4.51713,0 10e-5,0.19696 c 5e-5,0.10834 0.15358,6.05873 0.3412,13.2231 0.18762,7.16437 0.34121,13.2684 0.34133,13.56451 l 1.9e-4,0.53838 -4.85854,0 -4.85853,0 0,-13.76148 z"
         style="opacity:0.38999999;fill:#0000ff;fill-opacity:0.38823529;stroke:none;stroke-width:0.0962778;stroke-linecap:square;stroke-miterlimit:10;stroke-dasharray:none;stroke-dashoffset:0;stroke-opacity:1" /><path
         transform="matrix(0,0.75000002,0.75000002,0,0,0)"
         inkscape:connector-curvature="0"
         id="path4535"
         d="m 626.19842,598.95512 c 0.0293,-1.09621 0.44211,-25.47156 0.44209,-26.10478 l -10e-6,-0.35454 2.75754,0 2.75755,0 2.6e-4,0.43332 c 1.6e-4,0.23834 0.10643,6.41327 0.23619,13.72209 0.12977,7.30881 0.23602,13.30648 0.23612,13.32814 10e-5,0.0217 -1.45296,0.0394 -3.229,0.0394 l -3.22916,0 0.0284,-1.06363 -2e-5,0 z"
         style="opacity:0.38999999;fill:#0000ff;fill-opacity:0.38823529;stroke:none;stroke-width:0.0962778;stroke-linecap:square;stroke-miterlimit:10;stroke-dasharray:none;stroke-dashoffset:0;stroke-opacity:1" /><path
         transform="matrix(0,0.75000002,0.75000002,0,0,0)"
         inkscape:connector-curvature="0"
         id="path4537"
         d="m 626.69314,570.72309 c 6e-5,-0.42611 0.14177,-9.0592 0.31492,-19.18466 0.17314,-10.12545 0.3149,-18.64036 0.31503,-18.92203 l 2.3e-4,-0.51211 2.04281,0 2.04282,0 0.0322,0.90605 c 0.0344,0.96815 0.66455,37.04365 0.66292,37.94911 l -9.6e-4,0.53838 -2.70503,0 -2.70502,0 1.2e-4,-0.77474 z"
         style="opacity:0.38999999;fill:#0000ff;fill-opacity:0.38823529;stroke:none;stroke-width:0.0962778;stroke-linecap:square;stroke-miterlimit:10;stroke-dasharray:none;stroke-dashoffset:0;stroke-opacity:1" /><path
         transform="matrix(0,0.75000002,0.75000002,0,0,0)"
         inkscape:connector-curvature="0"
         id="path4539"
         d="m 677.32266,556.97526 c 0.10821,-7.96665 0.1969,-16.79125 0.19708,-19.61022 l 3.4e-4,-5.12541 5.74718,0 5.74718,0 0.19404,5.42253 c 0.10673,2.98239 0.28329,11.80699 0.39236,19.61023 l 0.19832,14.1877 -6.33662,0 -6.33663,0 0.19675,-14.48483 z"
         style="opacity:0.38999999;fill:#0000ff;fill-opacity:0.38823529;stroke:none;stroke-width:0.54462951;stroke-linecap:square;stroke-miterlimit:10;stroke-dasharray:none;stroke-dashoffset:0;stroke-opacity:1" /><path
         transform="matrix(0,0.75000002,0.75000002,0,0,0)"
         inkscape:connector-curvature="0"
         id="path4541"
         d="m 676.12882,647.74685 c 0.10455,-6.90444 0.33216,-25.52301 0.50581,-41.37461 0.17364,-15.8516 0.38906,-29.92417 0.47869,-31.27237 l 0.16298,-2.45128 6.18506,0 6.18506,0 0.16714,1.41134 c 0.0919,0.77624 0.24799,12.77636 0.34682,26.66694 0.0988,13.89058 0.23457,25.45616 0.30162,25.70128 0.0713,0.26058 -0.23502,0.64944 -0.73746,0.93625 -1.03727,0.59209 -1.32517,1.79968 -1.79569,7.53181 -0.72521,8.83501 -1.00231,11.12834 -1.66057,13.74312 -1.30035,5.16537 -3.69023,8.41101 -7.77313,10.55652 -1.15605,0.60748 -2.20417,1.10452 -2.32917,1.10452 -0.12499,0 -0.14171,-5.64909 -0.0372,-12.55352 z"
         style="opacity:0.38999999;fill:#0000ff;fill-opacity:0.38823529;stroke:none;stroke-width:0.54462951;stroke-linecap:square;stroke-miterlimit:10;stroke-dasharray:none;stroke-dashoffset:0;stroke-opacity:1" /><path
         transform="matrix(0,0.75000002,0.75000002,0,0,0)"
         inkscape:connector-curvature="0"
         id="path4543"
         d="m 738.28207,664.65642 c -3.05413,-1.01134 -4.52053,-2.46531 -6.4666,-6.41179 -1.45619,-2.95305 -3.33128,-5.59093 -4.73561,-6.66206 -3.12423,-2.38297 -6.33727,-2.93306 -12.62968,-2.16229 -6.22122,0.76205 -11.48505,0.56161 -14.35985,-0.54679 -0.29689,-0.11447 -1.22866,0.5189 -2.6604,1.80841 l -2.20348,1.98458 -0.21627,-0.80866 c -0.11895,-0.44476 -0.45329,-2.45997 -0.74297,-4.47824 -0.50932,-3.54847 -0.50451,-4.62408 0.14588,-32.58927 0.36992,-15.90582 0.7528,-31.89463 0.85083,-35.5307 l 0.17825,-6.61102 2.92394,0 2.92394,0 2.7e-4,6.90815 c 7.5e-4,18.36681 0.40642,42.13895 0.7171,42.01969 1.02964,-0.39522 10.67089,-7.53183 10.87134,-8.04713 0.18828,-0.484 1.82984,-37.34418 1.79099,-40.21555 l -0.009,-0.6719 11.95924,0.0777 11.95924,0.0776 1.54028,15.02086 1.54028,15.02086 7.44184,27.77258 c 4.09301,15.27492 7.5203,28.17033 7.6162,28.65647 l 0.17437,0.88388 -3.96356,1.54165 c -7.44901,2.89733 -12.04,3.82608 -14.64648,2.96297 z"
         style="opacity:0.38999999;fill:#0000ff;fill-opacity:0.38823529;stroke:none;stroke-width:0.54462951;stroke-linecap:square;stroke-miterlimit:10;stroke-dasharray:none;stroke-dashoffset:0;stroke-opacity:1" /><path
         transform="matrix(0,0.75000002,0.75000002,0,0,0)"
         inkscape:connector-curvature="0"
         id="path4545"
         d="m 662.08508,673.15101 0.0155,-10.32509 0.68159,1.83403 c 1.32417,3.56306 3.73639,6.49021 5.9507,7.221 1.08941,0.35954 3.14949,0.30499 4.06895,-0.10774 0.43056,-0.19326 0.50437,0.38208 0.69873,5.44627 l 0.21731,5.66236 1.00975,0 1.00974,0 0,-6.68981 0,-6.6898 0.87242,-1.55541 c 0.47983,-0.85547 1.15669,-2.32081 1.50414,-3.25632 0.58625,-1.57846 0.76409,-1.77086 2.47024,-2.67258 2.35228,-1.2432 5.71944,-4.59924 6.94018,-6.91724 1.16598,-2.21403 2.09015,-5.04768 2.57971,-7.90986 l 0.37499,-2.19238 0.205,5.64537 c 0.11275,3.10496 0.20538,9.48942 0.20584,14.18771 l 8.4e-4,8.54233 0.99478,0 0.99478,0 0.19372,-3.16603 c 0.10654,-1.74132 0.19444,-4.98369 0.19532,-7.20527 l 0.002,-4.03925 3.60355,-3.21065 c 2.19773,-1.95812 3.76805,-3.14754 4.02521,-3.04886 0.23192,0.089 1.6279,0.32241 3.10218,0.5187 2.1788,0.29008 3.46885,0.2768 6.89251,-0.071 5.97182,-0.6066 11.37393,-0.57361 12.56119,0.0767 1.80726,0.98994 3.55183,3.15461 5.44485,6.75597 3.01023,5.72679 5.98568,8.00327 10.82691,8.28352 3.84865,0.2228 7.11825,-0.54807 14.5079,-3.42049 1.93514,-0.75221 3.56777,-1.31417 3.62806,-1.2488 0.0603,0.0654 0.96644,3.32036 2.01367,7.23332 l 1.90406,7.11447 2.36396,1.38486 c 1.30018,0.76167 3.43361,2.00347 4.74096,2.75956 l 2.377,1.37469 -54.59666,0.005 -54.59666,0.005 0.0155,-10.32508 z"
         style="opacity:0.38999999;fill:#0000ff;fill-opacity:0.38823529;stroke:none;stroke-width:0.54462951;stroke-linecap:square;stroke-miterlimit:10;stroke-dasharray:none;stroke-dashoffset:0;stroke-opacity:1" /><path
         transform="matrix(0,0.75000002,0.75000002,0,0,0)"
         inkscape:connector-curvature="0"
         id="path4547"
         d="m 669.17024,668.23849 c -1.25244,-0.8417 -2.7629,-3.31306 -3.58048,-5.85825 -0.51436,-1.60126 -0.66349,-3.12458 -0.87266,-8.91374 -0.41708,-11.54343 -1.70238,-28.77396 -2.36045,-31.64378 -0.14989,-0.65367 -0.2758,-5.83478 -0.27979,-11.51358 l -0.007,-10.32508 4.754,0 4.75399,0 0.002,2.15415 c 0.001,1.18479 0.3291,14.58882 0.72897,29.78675 0.39988,15.19793 0.76092,29.35348 0.80233,31.45678 l 0.0753,3.82418 -0.95751,0.85553 c -1.15613,1.033 -1.73482,1.0665 -3.05834,0.17704 l -1e-5,0 z"
         style="opacity:0.38999999;fill:#0000ff;fill-opacity:0.38823529;stroke:none;stroke-width:0.54462951;stroke-linecap:square;stroke-miterlimit:10;stroke-dasharray:none;stroke-dashoffset:0;stroke-opacity:1" /><path
         transform="matrix(0,0.75000002,0.75000002,0,0,0)"
         inkscape:connector-curvature="0"
         id="path4549"
         d="m 611.65822,681.4705 c 0.0971,-1.10308 0.41108,-7.22013 0.69766,-13.59346 0.28659,-6.37332 0.55899,-11.3873 0.60534,-11.14217 0.0463,0.24513 0.62055,3.31546 1.27599,6.82296 0.65544,3.5075 1.32364,6.50921 1.48489,6.67045 0.16124,0.16125 0.29317,0.9163 0.29317,1.6779 0,0.7616 0.085,2.00507 0.18895,2.76326 0.18018,1.31459 0.23321,1.37853 1.14322,1.37853 l 0.95426,0 0.18248,-3.63977 c 0.10037,-2.00188 0.41499,-9.88185 0.69917,-17.51104 0.28417,-7.62919 0.60049,-13.81947 0.70292,-13.75616 0.10243,0.0633 0.47396,1.02398 0.82562,2.13484 0.54825,1.73185 0.74724,3.90434 1.39607,15.24178 0.41618,7.27212 0.7532,13.58974 0.74893,14.03914 -0.007,0.7304 0.0979,0.81709 0.98815,0.81709 l 0.99589,0 0.19082,-2.45128 c 0.10496,-1.3482 0.19693,-5.45966 0.2044,-9.13658 l 0.0136,-6.68531 1.97221,5.19969 c 2.079,5.48123 2.09494,5.51838 2.28412,5.32348 0.10593,-0.10914 2.23646,-19.04077 2.27099,-20.17972 0.007,-0.24513 0.37497,0.22285 0.81677,1.03994 0.80247,1.48418 0.80334,1.49276 0.89637,8.83946 l 0.0931,7.35383 0.99499,0 c 1.13841,0 1.1581,-0.0633 1.50696,-4.84692 l 0.19096,-2.61848 1.27732,2.83617 c 2.33916,5.19389 4.39909,7.28708 7.41763,7.5374 2.34613,0.19456 4.41332,-0.87559 7.36761,-3.8141 l 2.30272,-2.29041 0,3.62977 c 0,1.99638 0.0883,7.26156 0.1963,11.70041 l 0.1963,8.07064 0.9922,0 c 0.54571,0 0.9922,-0.0492 0.9922,-0.10927 0,-0.0601 0.60167,-5.19606 1.33706,-11.41326 1.00553,-8.5012 1.33886,-12.39712 1.34432,-15.71263 0.004,-2.42474 0.15006,-5.01029 0.32459,-5.74568 0.17454,-0.73538 0.41871,-2.87468 0.54261,-4.75399 0.13741,-2.0842 0.24259,4.72436 0.26966,17.45607 l 0.0444,20.87301 -24.69974,0 -24.69974,0 0.1766,-2.00559 z"
         style="opacity:0.38999999;fill:#0000ff;fill-opacity:0.38823529;stroke:none;stroke-width:0.54462951;stroke-linecap:square;stroke-miterlimit:10;stroke-dasharray:none;stroke-dashoffset:0;stroke-opacity:1" /><path
         transform="matrix(0,0.75000002,0.75000002,0,0,0)"
         inkscape:connector-curvature="0"
         id="path4551"
         d="m 644.21866,661.9398 c -1.39959,-0.76102 -2.80417,-3.29219 -5.58491,-10.06448 l -1.81236,-4.41386 0.90333,-12.37368 c 0.49683,-6.80553 0.96568,-12.67452 1.0419,-13.04222 0.11043,-0.53275 0.34083,-0.66853 1.13446,-0.66853 l 0.99588,0 0.17608,-2.00559 c 0.0969,-1.10307 0.33689,-5.91649 0.53342,-10.69649 l 0.35734,-8.69089 5.70498,0 5.70497,0 0.18546,5.1254 c 0.10201,2.81897 0.34349,15.0322 0.53664,27.14052 l 0.35117,22.01513 -2.00825,2.3491 c -2.45331,2.86968 -4.13145,4.42895 -5.58498,5.18934 -1.29421,0.67704 -1.61047,0.69339 -2.63513,0.13625 z"
         style="opacity:0.38999999;fill:#0000ff;fill-opacity:0.38823529;stroke:none;stroke-width:0.54462951;stroke-linecap:square;stroke-miterlimit:10;stroke-dasharray:none;stroke-dashoffset:0;stroke-opacity:1" /><path
         transform="matrix(0,0.75000002,0.75000002,0,0,0)"
         inkscape:connector-curvature="0"
         id="path4553"
         d="m 626.44835,648.56276 -0.95979,-2.52675 0.38876,-22.95169 0.38875,-22.9517 3.19409,-0.0843 3.19409,-0.0843 0,4.24728 c 0,2.336 0.14211,11.37957 0.31579,20.09682 0.17368,8.71726 0.26673,15.89861 0.20678,15.95856 -0.0599,0.0599 -0.89921,-0.91759 -1.86503,-2.1723 l -1.75603,-2.28129 -0.20454,1.02722 c -0.11249,0.56496 -0.51046,4.00217 -0.88437,7.63824 -0.37391,3.63606 -0.76508,6.61102 -0.86927,6.61102 -0.10419,0 -0.62134,-1.13703 -1.14923,-2.52674 z"
         style="opacity:0.38999999;fill:#0000ff;fill-opacity:0.38823529;stroke:none;stroke-width:0.54462951;stroke-linecap:square;stroke-miterlimit:10;stroke-dasharray:none;stroke-dashoffset:0;stroke-opacity:1" /><path
         transform="matrix(0,0.75000002,0.75000002,0,0,0)"
         inkscape:connector-curvature="0"
         id="path4555"
         d="m 606.25308,682.13273 c 0.046,-0.71496 0.15821,-7.11614 0.24942,-14.22484 l 0.16585,-12.92493 0.6531,-1.93725 c 0.35921,-1.06549 0.65311,-2.06271 0.65311,-2.21605 0,-0.15334 0.0425,-0.23632 0.0944,-0.1844 0.0519,0.0519 0.14573,5.56173 0.20845,12.24401 l 0.11405,12.14961 0.83148,4.07782 c 0.45732,2.24279 0.83149,4.13139 0.83149,4.19688 0,0.0655 -0.87411,0.11907 -1.94247,0.11907 l -1.94246,0 0.0836,-1.29992 z"
         style="opacity:0.38999999;fill:#0000ff;fill-opacity:0.38823529;stroke:none;stroke-width:0.27231476;stroke-linecap:square;stroke-miterlimit:10;stroke-dasharray:none;stroke-dashoffset:0;stroke-opacity:1" /><path
         transform="matrix(0,0.75000002,0.75000002,0,0,0)"
         inkscape:connector-curvature="0"
         id="path4557"
         d="m 607.28186,617.82232 c 0.0521,-1.54144 0.13892,-6.464 0.19299,-10.93902 0.0541,-4.47502 0.1385,-8.09624 0.18759,-8.04717 0.063,0.063 0.30474,21.37924 0.24442,21.5505 -0.004,0.0103 -0.16703,0.0681 -0.36313,0.1285 l -0.35654,0.10982 0.0947,-2.80263 z"
         style="opacity:0.38999999;fill:#0000ff;fill-opacity:0.38823529;stroke:none;stroke-width:0.27231476;stroke-linecap:square;stroke-miterlimit:10;stroke-dasharray:none;stroke-dashoffset:0;stroke-opacity:1" /><path
         transform="matrix(0,0.75000002,0.75000002,0,0,0)"
         inkscape:connector-curvature="0"
         id="path4559"
         d="m 585.45892,656.24574 c 0.0403,-0.36769 0.39291,-8.39005 0.78364,-17.82748 0.39074,-9.43742 0.73455,-16.95839 0.76404,-16.71326 0.0295,0.24513 0.60024,7.12434 1.26834,15.28713 l 1.21473,14.84145 -1.27766,1.72325 c -0.70272,0.94779 -1.62611,2.09095 -2.05199,2.54035 l -0.77433,0.81709 0.0732,-0.66853 z"
         style="opacity:0.38999999;fill:#0000ff;fill-opacity:0.38823529;stroke:none;stroke-width:0.27231476;stroke-linecap:square;stroke-miterlimit:10;stroke-dasharray:none;stroke-dashoffset:0;stroke-opacity:1" /><path
         transform="matrix(0,0.75000002,0.75000002,0,0,0)"
         inkscape:connector-curvature="0"
         id="path4561"
         d="m 593.97915,655.87434 c -0.75162,-2.21355 -0.74236,-2.04037 -0.5729,-10.71047 0.0868,-4.43909 0.16656,-8.62522 0.17732,-9.30251 0.0108,-0.67729 0.17677,3.51513 0.36893,9.31649 0.19216,5.80136 0.33352,10.74849 0.31413,10.99361 -0.0323,0.40807 -0.0565,0.38299 -0.28748,-0.29712 z"
         style="opacity:0.38999999;fill:#0000ff;fill-opacity:0.38823529;stroke:none;stroke-width:0.27231476;stroke-linecap:square;stroke-miterlimit:10;stroke-dasharray:none;stroke-dashoffset:0;stroke-opacity:1" /><path
         transform="matrix(0,0.75000002,0.75000002,0,0,0)"
         inkscape:connector-curvature="0"
         id="path4563"
         d="m 560.12508,679.31005 2.06849,-4.12261 2.07086,-2.05701 2.07085,-2.05701 1.29996,3.24551 c 0.71497,1.78503 1.36571,3.41264 1.44608,3.61691 0.13412,0.34093 0.23144,0.20073 1.18592,-1.70846 0.79469,-1.5896 1.23226,-2.27661 1.85626,-2.91447 l 0.81646,-0.83459 0.0838,-5.57093 0.0838,-5.57092 0.51812,0.3516 c 0.28496,0.19338 0.62578,0.35869 0.75737,0.36735 1.7756,0.11683 2.51817,-0.74127 3.00906,-3.47723 l 0.18125,-1.01021 1.45719,1.45174 1.4572,1.45173 2.02554,6.09521 c 1.11405,3.35237 2.08404,6.15873 2.15554,6.23636 0.0758,0.0823 0.13108,-0.16539 0.13261,-0.59425 0.001,-0.40446 0.1008,-2.87468 0.2208,-5.48938 0.12001,-2.6147 0.21911,-5.10497 0.22023,-5.53395 0.002,-0.70878 0.0325,-0.78008 0.3363,-0.78134 0.624,-0.003 1.84473,-0.86578 3.0573,-2.1618 0.7536,-0.80547 1.23242,-1.21471 1.27186,-1.08706 0.0348,0.1126 0.27354,2.91227 0.53055,6.2215 0.25701,3.30922 0.50575,6.33432 0.55277,6.72244 l 0.0855,0.70567 0.8769,0 c 0.56948,0 0.89858,-0.0651 0.93874,-0.1857 0.034,-0.10214 0.11549,-2.20064 0.18104,-4.66334 l 0.11919,-4.47765 0.65193,0.57915 0.65193,0.57915 0.29503,9.69243 c 0.16227,5.33083 0.32262,9.72274 0.35635,9.7598 0.0337,0.0371 1.35195,-1.22199 2.92939,-2.79788 l 2.86809,-2.86525 0.34177,-3.59031 c 0.18797,-1.97466 0.38375,-3.63851 0.43507,-3.69742 0.0513,-0.0589 0.81969,3.04975 1.70749,6.90815 0.8878,3.85839 1.64564,7.09883 1.6841,7.20097 0.0557,0.14807 -4.70455,0.1857 -23.49363,0.1857 l -23.56353,0 2.06849,-4.1226 z"
         style="opacity:0.38999999;fill:#0000ff;fill-opacity:0.38823529;stroke:none;stroke-width:0.27231476;stroke-linecap:square;stroke-miterlimit:10;stroke-dasharray:none;stroke-dashoffset:0;stroke-opacity:1" /><path
         transform="matrix(0,0.75000002,0.75000002,0,0,0)"
         inkscape:connector-curvature="0"
         id="path4565"
         d="m 529.83077,682.14443 c 0,-0.95081 0.0598,-1.35436 0.22851,-1.54073 0.19075,-0.21078 0.30867,-1.99243 0.71365,-10.78246 0.40799,-8.85554 0.51139,-10.41185 0.6503,-9.78716 0.0908,0.40855 0.64766,3.35008 1.23738,6.53675 l 1.0722,5.79393 2.09538,2.11701 c 1.15246,1.16436 2.13943,2.11701 2.19326,2.11701 0.0538,0 0.14557,-0.53866 0.20385,-1.19704 0.0583,-0.65837 0.12638,-1.17648 0.15135,-1.15136 0.025,0.0251 0.15056,1.51645 0.27911,3.31406 0.12856,1.7976 0.27475,3.71963 0.32488,4.27117 l 0.0911,1.00279 0.95058,0 c 0.66073,0 0.95097,-0.0566 0.95186,-0.1857 0.003,-0.39544 0.43829,-3.86889 0.49184,-3.92244 0.0311,-0.0311 0.14365,0.6488 0.25002,1.51098 0.10637,0.86218 0.23785,1.59508 0.29218,1.62866 0.0543,0.0336 1.04357,-0.88799 2.1983,-2.04792 l 2.09952,-2.10898 0.10062,-3.86262 c 0.14407,-5.53025 0.28887,-5.74001 0.41019,-0.59425 0.0578,2.45128 0.14567,4.97498 0.19527,5.60823 l 0.0902,1.15136 0.94647,0 0.94647,0 0.005,-0.55711 c 0.0135,-1.63093 1.00555,-23.97543 1.06717,-24.03705 0.04,-0.04 0.32546,0.47994 0.63427,1.15551 0.71305,1.5599 1.35703,4.10136 1.56121,6.16129 0.19035,1.92049 1.01751,4.59047 2.08477,6.72943 l 0.70421,1.41134 0.68654,6.16534 c 0.3776,3.39094 0.68627,6.21548 0.68594,6.27676 -3.4e-4,0.0613 -5.98396,0.11142 -13.29694,0.11142 l -13.29633,0 0,-1.28822 z"
         style="opacity:0.38999999;fill:#0000ff;fill-opacity:0.38823529;stroke:none;stroke-width:0.27231476;stroke-linecap:square;stroke-miterlimit:10;stroke-dasharray:none;stroke-dashoffset:0;stroke-opacity:1" /><path
         transform="matrix(0,0.75000002,0.75000002,0,0,0)"
         inkscape:connector-curvature="0"
         id="path4567"
         d="m 488.23332,683.39092 c 0,-0.023 0.73596,-1.87751 1.63548,-4.12124 l 1.63548,-4.07952 1.41004,-1.41536 c 1.22289,-1.22749 1.41161,-1.48402 1.42178,-1.93267 0.022,-0.97115 0.11764,-0.22139 0.35086,2.75106 0.12822,1.63419 0.27032,3.25537 0.31578,3.60264 l 0.0827,0.63139 0.95655,0 c 0.94217,0 0.9567,-0.006 0.96605,-0.40855 0.005,-0.2247 0.29289,-3.18295 0.63927,-6.57388 l 0.62977,-6.16534 0.10091,1.63419 c 0.0555,0.8988 0.20505,4.14117 0.33233,7.20527 0.12727,3.0641 0.26626,5.85521 0.30885,6.20248 l 0.0774,0.63139 0.95655,0 0.95656,0 0.003,-0.85424 c 0.001,-0.46982 0.13396,-4.36401 0.29457,-8.65375 0.16061,-4.28974 0.29457,-8.23407 0.29769,-8.76518 l 0.006,-0.96565 0.60625,0.94663 0.60625,0.94663 0.17982,8.7842 c 0.0989,4.83131 0.22385,8.68392 0.27766,8.56136 0.0538,-0.12257 0.87055,-3.33151 1.81499,-7.13099 0.94445,-3.79949 1.75237,-7.00691 1.79539,-7.12761 0.14079,-0.395 1.50111,2.4461 2.23763,4.67339 l 0.71149,2.1516 1.96803,1.96398 c 1.08242,1.08019 1.99963,1.93238 2.03826,1.89375 0.0386,-0.0386 0.73767,-2.73741 1.55343,-5.99729 l 1.48321,-5.92707 2.15991,-2.15991 c 1.18795,-1.18795 2.17959,-2.12941 2.20364,-2.09214 1.19921,1.85901 3.48926,5.18757 3.57066,5.18994 0.0613,0.002 0.11977,-0.71543 0.12997,-1.59381 0.0102,-0.87837 0.0651,-2.8004 0.12203,-4.27116 l 0.10349,-2.67412 0.0299,1.93131 c 0.0165,1.06222 0.12715,6.04277 0.24599,11.06789 0.11885,5.02512 0.2176,9.82183 0.21946,10.65935 l 0.003,1.52276 -18.71885,0 c -10.29537,0 -18.71885,-0.0188 -18.71885,-0.0417 z"
         style="opacity:0.38999999;fill:#0000ff;fill-opacity:0.38823529;stroke:none;stroke-width:0.27231476;stroke-linecap:square;stroke-miterlimit:10;stroke-dasharray:none;stroke-dashoffset:0;stroke-opacity:1" /><path
         transform="matrix(0,0.75000002,0.75000002,0,0,0)"
         inkscape:connector-curvature="0"
         id="path4569"
         d="m 476.94864,683.09839 c 0.003,-0.18385 0.32616,-7.62241 0.7174,-16.53014 l 0.71136,-16.19587 0.54537,-0.71447 c 0.29995,-0.39297 0.54537,-0.67116 0.54537,-0.61821 0,0.31366 2.07993,32.83802 2.1448,33.53872 l 0.0791,0.85423 -2.37472,0 c -2.36543,0 -2.3747,-10e-4 -2.36866,-0.33426 z"
         style="opacity:0.38999999;fill:#0000ff;fill-opacity:0.38823529;stroke:none;stroke-width:0.27231476;stroke-linecap:square;stroke-miterlimit:10;stroke-dasharray:none;stroke-dashoffset:0;stroke-opacity:1" /><path
         transform="matrix(0,0.75000002,0.75000002,0,0,0)"
         inkscape:connector-curvature="0"
         id="path4571"
         d="m 483.71495,679.60717 c 0.052,-2.10401 0.13819,-6.06506 0.19143,-8.80232 l 0.0968,-4.97684 0.11065,5.57109 c 0.0609,3.0641 0.15273,6.85049 0.20417,8.41421 l 0.0935,2.84312 0.83382,0.074 c 0.45859,0.0407 0.88566,0.0264 0.94902,-0.0317 0.0634,-0.0581 0.19305,-1.41938 0.28818,-3.02508 0.0951,-1.6057 0.18725,-2.90429 0.20471,-2.88575 0.0175,0.0185 0.10573,1.17021 0.19615,2.55927 0.0904,1.38905 0.20197,2.87653 0.24788,3.30551 l 0.0835,0.77995 -1.79722,0 -1.79722,0 0.0946,-3.82548 z"
         style="opacity:0.38999999;fill:#0000ff;fill-opacity:0.38823529;stroke:none;stroke-width:0.27231476;stroke-linecap:square;stroke-miterlimit:10;stroke-dasharray:none;stroke-dashoffset:0;stroke-opacity:1" /><path
         transform="matrix(0,0.75000002,0.75000002,0,0,0)"
         inkscape:connector-curvature="0"
         id="path4573"
         d="m 461.51003,681.24136 0.7396,-2.1913 1.40222,-11.8107 c 1.44618,-12.18098 2.24,-17.60605 2.6105,-17.84068 0.28885,-0.18291 0.42892,-0.16661 0.43242,0.0503 0.002,0.10213 0.39989,3.86262 0.88499,8.35663 0.85216,7.89453 0.90637,8.26641 1.60253,10.99361 l 0.72053,2.82269 0.72257,0.0743 0.72258,0.0743 1.90593,5.71819 c 1.04826,3.14501 1.90593,5.76899 1.90593,5.83107 0,0.0621 -3.23761,0.11288 -7.1947,0.11288 l -7.19469,0 0.73959,-2.19129 z"
         style="opacity:0.38999999;fill:#0000ff;fill-opacity:0.38823529;stroke:none;stroke-width:0.27231476;stroke-linecap:square;stroke-miterlimit:10;stroke-dasharray:none;stroke-dashoffset:0;stroke-opacity:1" /><path
         transform="matrix(0,0.75000002,0.75000002,0,0,0)"
         inkscape:connector-curvature="0"
         id="path4575"
         d="m 452.93876,683.09839 c 0.0379,-0.18385 0.10764,-1.73818 0.15495,-3.45408 0.0473,-1.71589 0.13425,-3.75491 0.19321,-4.53115 0.0976,-1.28489 0.12056,-1.07191 0.25642,2.377 l 0.14923,3.78834 1.0028,0.0439 1.0028,0.0439 0.0113,-1.97523 c 0.0132,-2.30303 0.67882,-26.07319 0.71469,-25.52237 0.0133,0.20427 0.31998,5.11797 0.68151,10.91933 0.64863,10.40859 0.66622,10.59993 1.33119,14.48483 0.37063,2.16529 0.67486,3.98704 0.67605,4.04832 10e-4,0.0613 -1.40301,0.11142 -3.12046,0.11142 l -3.12264,0 0.0689,-0.33426 z"
         style="opacity:0.38999999;fill:#0000ff;fill-opacity:0.38823529;stroke:none;stroke-width:0.27231476;stroke-linecap:square;stroke-miterlimit:10;stroke-dasharray:none;stroke-dashoffset:0;stroke-opacity:1" /><path
         transform="matrix(0,0.75000002,0.75000002,0,0,0)"
         inkscape:connector-curvature="0"
         id="path4577"
         d="m 397.90742,669.79045 0,-13.6422 1.23038,-0.46737 c 0.67671,-0.25705 2.26447,-1.1071 3.52836,-1.889 2.74259,-1.6967 4.63655,-2.65037 5.90511,-2.9734 1.72043,-0.4381 1.36125,-1.61856 3.1656,10.4041 0.87066,5.80136 1.61402,10.68163 1.65191,10.84505 0.11098,0.47863 0.2155,-0.28588 0.94403,-6.90525 0.37303,-3.38934 0.69216,-6.17636 0.70917,-6.19337 0.017,-0.017 1.29862,5.02909 2.84802,11.21356 l 2.81708,11.24449 0.0989,-1.55991 c 0.0544,-0.85794 0.21617,-6.80786 0.35947,-13.22204 0.14329,-6.41418 0.27918,-11.68552 0.30198,-11.71409 0.0228,-0.0286 0.27993,0.0267 0.57138,0.12294 0.47633,0.1572 0.53095,0.23007 0.54005,0.72048 0.0244,1.31603 0.52244,7.88725 0.60391,7.96873 0.0496,0.0496 1.65315,-0.30062 3.56352,-0.77819 l 3.47341,-0.86831 0.12737,-1.94652 0.12737,-1.94652 0.46688,0.15555 c 0.25678,0.0856 0.52771,0.2106 0.60206,0.27789 0.0991,0.0896 0.77415,7.70997 0.82461,9.30796 0.006,0.20362 1.93577,0.27753 1.93887,0.0743 8.9e-4,-0.0613 0.1673,-1.88303 0.3697,-4.04832 0.20241,-2.1653 0.36878,-4.04463 0.36971,-4.17629 0.001,-0.17497 0.10163,-0.22028 0.37311,-0.16838 0.28325,0.0542 0.37201,0.16385 0.37396,0.46222 0.002,0.28309 0.57076,15.76032 0.58914,16.02742 0.001,0.0204 0.43139,0.0371 0.95553,0.0371 l 0.95298,0 0.0944,-1.15136 c 0.1669,-2.03573 0.27296,-1.96381 0.47375,0.32128 0.1753,1.99499 0.27221,2.44958 0.97382,4.56829 l 0.77915,2.35284 2.16975,0 2.16976,0 0.19231,-5.45966 c 0.10576,-3.00282 0.2412,-6.06135 0.30096,-6.79673 l 0.10867,-1.33706 0.0212,1.28135 c 0.0116,0.70474 0.063,1.49026 0.11402,1.74561 0.0923,0.4617 0.0981,0.46425 1.03993,0.46425 l 0.94709,0 0.004,-0.63139 c 0.002,-0.34726 0.10069,-2.13558 0.21874,-3.97404 0.11804,-1.83846 0.22441,-3.54321 0.23636,-3.78834 0.012,-0.24513 0.3736,3.68928 0.80365,8.74313 l 0.78191,9.18882 0.86713,0.87628 0.86715,0.87628 -26.77371,0 -26.77371,0 0,-13.6422 z"
         style="opacity:0.38999999;fill:#0000ff;fill-opacity:0.38823529;stroke:none;stroke-width:0.27231476;stroke-linecap:square;stroke-miterlimit:10;stroke-dasharray:none;stroke-dashoffset:0;stroke-opacity:1" /><path
         transform="matrix(0,0.75000002,0.75000002,0,0,0)"
         inkscape:connector-curvature="0"
         id="path4579"
         d="m 478.63739,643.48689 c 0.0139,-0.18778 0.0618,-1.26322 0.10624,-2.38988 0.0445,-1.12665 0.0861,-2.09573 0.0924,-2.15351 0.006,-0.0578 0.068,0.80494 0.13718,1.91715 l 0.12571,2.0222 -0.24341,0.47272 -0.24341,0.47273 0.0253,-0.34141 z"
         style="opacity:0.38999999;fill:#0000ff;fill-opacity:0.38823529;stroke:none;stroke-width:0.0962778;stroke-linecap:square;stroke-miterlimit:10;stroke-dasharray:none;stroke-dashoffset:0;stroke-opacity:1" /><path
         transform="matrix(0,0.75000002,0.75000002,0,0,0)"
         inkscape:connector-curvature="0"
         id="path4581"
         d="m 502.42117,642.06872 c 0,-0.21667 0.009,-0.3053 0.0206,-0.19697 0.0113,0.10833 0.0113,0.2856 0,0.39394 -0.0113,0.10833 -0.0206,0.0197 -0.0206,-0.19697 z"
         style="opacity:0.38999999;fill:#0000ff;fill-opacity:0.38823529;stroke:none;stroke-width:0.0962778;stroke-linecap:square;stroke-miterlimit:10;stroke-dasharray:none;stroke-dashoffset:0;stroke-opacity:1" /><path
         transform="matrix(0,0.75000002,0.75000002,0,0,0)"
         inkscape:connector-curvature="0"
         id="path4583"
         d="m 399.86152,651.07805 c 0.0442,-0.3064 1.0772,-10.31765 2.29554,-22.2472 1.21834,-11.92956 2.2359,-21.89066 2.26124,-22.13579 0.0308,-0.29776 0.47486,0.98431 1.33792,3.86262 l 1.29186,4.30831 0.67662,12.10783 c 0.6474,11.58481 0.7023,12.2768 1.27085,16.01945 0.32682,2.1514 0.59422,3.99971 0.59422,4.10736 0,0.1249 -0.3547,0.25749 -0.98026,0.36643 -1.98928,0.34642 -3.97107,1.24237 -7.13446,3.22546 -0.82703,0.51845 -1.54649,0.94264 -1.5988,0.94264 -0.0523,0 -0.0589,-0.2507 -0.0147,-0.55711 z"
         style="opacity:0.38999999;fill:#0000ff;fill-opacity:0.38823529;stroke:none;stroke-width:0.27231476;stroke-linecap:square;stroke-miterlimit:10;stroke-dasharray:none;stroke-dashoffset:0;stroke-opacity:1" /><path
         transform="matrix(0,0.75000002,0.75000002,0,0,0)"
         inkscape:connector-curvature="0"
         id="path4585"
         d="m 421.71896,651.52972 c -0.21981,-0.0566 -0.25749,-0.16237 -0.18571,-0.52131 0.0495,-0.24768 0.0901,-1.75897 0.0901,-3.35843 0,-1.6218 0.0562,-2.84568 0.12707,-2.76697 0.0699,0.0776 0.2046,1.41134 0.29936,2.96381 0.20027,3.28099 0.20795,3.79455 0.0564,3.77111 -0.0613,-0.009 -0.23552,-0.0492 -0.38719,-0.0882 z"
         style="opacity:0.38999999;fill:#0000ff;fill-opacity:0.38823529;stroke:none;stroke-width:0.27231476;stroke-linecap:square;stroke-miterlimit:10;stroke-dasharray:none;stroke-dashoffset:0;stroke-opacity:1" /><path
         transform="matrix(0,0.75000002,0.75000002,0,0,0)"
         inkscape:connector-curvature="0"
         id="path4587"
         d="m 430.90846,654.86113 c -0.28947,-0.1758 -0.29353,-0.26263 -0.15747,-3.37453 l 0.13964,-3.19409 0.1824,2.45128 c 0.10032,1.3482 0.21881,2.86911 0.26331,3.37979 0.0849,0.97436 0.0529,1.02952 -0.42788,0.73755 z"
         style="opacity:0.38999999;fill:#0000ff;fill-opacity:0.38823529;stroke:none;stroke-width:0.27231476;stroke-linecap:square;stroke-miterlimit:10;stroke-dasharray:none;stroke-dashoffset:0;stroke-opacity:1" /><path
         transform="matrix(0,0.75000002,0.75000002,0,0,0)"
         inkscape:connector-curvature="0"
         id="path4589"
         d="m 369.42477,681.43088 0.66743,-1.99662 1.88416,-0.62098 c 1.03629,-0.34154 1.95742,-0.69656 2.04695,-0.78892 0.0895,-0.0924 1.08302,-2.3302 2.20777,-4.97295 l 2.04498,-4.80501 0.72634,-5.06326 c 0.39949,-2.7848 0.72634,-5.10959 0.72634,-5.1662 0,-0.0566 0.76475,-0.0692 1.69944,-0.0279 1.5363,0.0678 1.81796,0.0379 2.93411,-0.31103 0.67906,-0.21231 1.60235,-0.61964 2.05176,-0.90516 l 0.81709,-0.51914 0.10234,0.40201 c 0.0563,0.2211 0.31132,4.98144 0.56674,10.57853 l 0.46438,10.17652 0.73319,2.92867 c 0.40325,1.61078 0.73319,2.96455 0.73319,3.00839 0,0.0438 -4.74157,0.0797 -10.53682,0.0797 l -10.53682,0 0.66743,-1.99662 z"
         style="opacity:0.38999999;fill:#0000ff;fill-opacity:0.38823529;stroke:none;stroke-width:0.27231476;stroke-linecap:square;stroke-miterlimit:10;stroke-dasharray:none;stroke-dashoffset:0;stroke-opacity:1" /><path
         transform="matrix(0,0.75000002,0.75000002,0,0,0)"
         inkscape:connector-curvature="0"
         id="path4591"
         d="m 391.69718,680.19627 c 0.0557,-1.77717 0.17985,-6.10591 0.27585,-9.61941 0.14529,-5.31753 0.19171,-6.08939 0.27695,-4.60543 0.0693,1.20642 0.54255,4.25616 1.4639,9.43371 0.74882,4.20802 1.39202,7.73452 1.42932,7.83666 0.0519,0.1421 -0.35658,0.1857 -1.73976,0.1857 l -1.80757,0 0.10131,-3.23123 z"
         style="opacity:0.38999999;fill:#0000ff;fill-opacity:0.38823529;stroke:none;stroke-width:0.27231476;stroke-linecap:square;stroke-miterlimit:10;stroke-dasharray:none;stroke-dashoffset:0;stroke-opacity:1" /><text
         transform="matrix(0,1,1,0,0,0)"
         sodipodi:linespacing="125%"
         id="text4593"
         y="152.51659"
         x="215.34244"
         style="font-style:normal;font-variant:normal;font-weight:normal;font-stretch:normal;font-size:22.00000191px;line-height:125%;font-family:Arial;-inkscape-font-specification:'Arial, Normal';text-align:center;letter-spacing:0px;word-spacing:0px;writing-mode:lr-tb;text-anchor:middle;fill:#000000;fill-opacity:1;stroke:none;stroke-width:0.75px;stroke-linecap:butt;stroke-linejoin:miter;stroke-opacity:1"
         xml:space="preserve"><tspan
           id="tspan4601"
           style="font-size:14px;stroke-width:0.75px"
           y="152.51659"
           x="215.34244"
           sodipodi:role="line">Reference area</tspan></text>
<text
         transform="matrix(0,1,1,0,0,0)"
         sodipodi:linespacing="125%"
         id="text4597"
         y="128.27065"
         x="209.25845"
         style="font-style:normal;font-variant:normal;font-weight:normal;font-stretch:normal;font-size:22.00000191px;line-height:125%;font-family:Arial;-inkscape-font-specification:'Arial, Normal';text-align:center;letter-spacing:0px;word-spacing:0px;writing-mode:lr-tb;text-anchor:middle;fill:#000000;fill-opacity:1;stroke:none;stroke-width:0.75px;stroke-linecap:butt;stroke-linejoin:miter;stroke-opacity:1"
         xml:space="preserve"><tspan
           style="font-size:14px;stroke-width:0.75px"
           y="128.27065"
           x="209.25845"
           id="tspan4599"
           sodipodi:role="line">Whole region</tspan></text>
<text
         xml:space="preserve"
         style="font-style:normal;font-variant:normal;font-weight:normal;font-stretch:normal;font-size:22.00000191px;line-height:125%;font-family:Arial;-inkscape-font-specification:'Arial, Normal';text-align:center;letter-spacing:0px;word-spacing:0px;writing-mode:lr-tb;text-anchor:middle;fill:#000000;fill-opacity:1;stroke:none;stroke-width:0.75px;stroke-linecap:butt;stroke-linejoin:miter;stroke-opacity:1"
         x="349.81461"
         y="546.7876"
         id="text4609"
         sodipodi:linespacing="125%"
         transform="matrix(0,1,1,0,0,0)"><tspan
           sodipodi:role="line"
           id="tspan4611"
           x="349.81461"
           y="546.7876"
           style="font-size:14px;stroke-width:0.75px">MES (0-100)</tspan></text>
<text
         xml:space="preserve"
         style="font-style:normal;font-variant:normal;font-weight:normal;font-stretch:normal;font-size:22.00000191px;line-height:125%;font-family:Arial;-inkscape-font-specification:'Arial, Normal';text-align:center;letter-spacing:0px;word-spacing:0px;writing-mode:lr-tb;text-anchor:middle;fill:#000000;fill-opacity:1;stroke:none;stroke-width:0.75px;stroke-linecap:butt;stroke-linejoin:miter;stroke-opacity:1"
         x="-292.03168"
         y="72.509926"
         id="text4619"
         sodipodi:linespacing="125%"
         transform="scale(-1,1)"><tspan
           sodipodi:role="line"
           id="tspan4621"
           x="-292.03168"
           y="72.509926"
           style="font-size:14px;stroke-width:0.75px">Percentage cells</tspan></text>
</g></g></svg>